<svg id="Line" xmlns="http://www.w3.org/2000/svg" viewBox="0 0 64 64"><path d="M53.78,41.38,51,37.9V35a6.956,6.956,0,0,0-3.83-6.24A3,3,0,0,0,49,26V19A17.024,17.024,0,0,0,32,2C21.2,2,15,8.2,15,19v7a3,3,0,0,0,2.51,2.95A6.971,6.971,0,0,0,14,35v2.9l-2.78,3.48a.981.981,0,0,0-.12,1.05A1,1,0,0,0,12,43h6a7,7,0,0,0,6.04-3.5,14.368,14.368,0,0,0,1.35.83L25.08,44H20a9.014,9.014,0,0,0-9,9v8a1,1,0,0,0,1,1H52a1,1,0,0,0,1-1V53a9.014,9.014,0,0,0-9-9H38.92l-.31-3.67a12.585,12.585,0,0,0,2.07-1.37A7.044,7.044,0,0,0,47,43h6a1,1,0,0,0,.9-.57A.981.981,0,0,0,53.78,41.38ZM18,27a1,1,0,0,1-1-1V24h1Zm6,25.61V46h1.59l4.56,4.56Zm3.04-7.99.28-3.44a13.765,13.765,0,0,0,9.36,0l.28,3.44L32,49.59ZM40,46v6.61l-6.15-2.05L38.41,46Zm4-18a12,12,0,0,1-24,0V23.31l1.72-2.54a1.091,1.091,0,0,0,.06-.11A3.044,3.044,0,0,1,24.47,19H31a7,7,0,0,0,6.09-3.55c.09.13.18.25.28.37a6.041,6.041,0,0,0,3.43,2.06,1.1,1.1,0,0,1,.8.55L44,23.24Zm3-2a1,1,0,0,1-1,1V24h1Z"/><path d="M27,21a1,1,0,0,0-1,1v2a1,1,0,0,0,2,0V22A1,1,0,0,0,27,21Z"/><path d="M37,21a1,1,0,0,0-1,1v2a1,1,0,0,0,2,0V22A1,1,0,0,0,37,21Z"/></svg>