
<svg version="1.1" id="Layer_1" xmlns="http://www.w3.org/2000/svg" xmlns:xlink="http://www.w3.org/1999/xlink" x="0px" y="0px"
	 viewBox="0 0 205.126 229.2004" enable-background="new 0 0 205.126 229.2004" xml:space="preserve">
<g>
	<path d="M64.5976,5.8762c-5.2861-4.8095-12.7675-7.0293-20.2539-5.2851C40.456,1.4963,37.0439,3.3635,34.292,5.8772
		c3.9482,1.9414,9.416,3.0566,15.1543,3.0566C55.1806,8.9338,60.6474,7.8167,64.5976,5.8762z"/>
	<path d="M27.5371,27.6008c2.8174,12.0996,14.9102,19.625,27.0098,16.8077c12.1005-2.8174,19.6259-14.9112,16.8086-27.0108
		c-0.3594-1.543-0.8711-3.0107-1.5137-4.3935c-4.4756,3.5078-12.0488,5.5947-20.3955,5.5947
		c-7.8057,0-14.9395-1.8184-19.4922-4.9209c-0.7559,0.7432-1.6055,2.0371-2.457,3.8789
		C26.7715,20.7649,26.7412,24.1829,27.5371,27.6008z"/>
	<path d="M131.0371,81.0227c-7.5879,0-14.9111,1.1514-21.8096,3.2803c-6.5068-12.7217-13.9541-20.6533-20.8418-25.4287
		c-7.6318-5.3184-14.2978-6.5957-17.498-6.8731c-0.6758-0.1933-1.3867-0.3027-2.124-0.3027H30.1289
		c-0.6484,0-1.2734,0.0889-1.875,0.2383c-0.6836,0.0195-1.376,0.1172-2.0625,0.3213c-0.6592,0.2148-6.7471,2.0244-13.1983,7.583
		c-3.2099,2.7822-6.4951,6.5556-8.957,11.498C1.5703,76.2727-0.0088,82.3489,0,89.3538
		c0.0234,12.6113,4.8808,27.9384,17.3174,47.1738c1.208,1.8672,3.0654,3.0508,5.083,3.4727v76.8193
		c0,6.8281,5.5371,12.3633,12.3652,12.3633c6.8262,0,12.3633-5.5352,12.3633-12.3633v-81.2734h4.7715v81.2734
		c0,6.8281,5.5371,12.3633,12.3652,12.3633c6.8262,0,12.3633-5.5352,12.3633-12.3633v-11.4883
		c13.5449,14.6641,32.9189,23.8691,54.4082,23.8691c40.8535,0,74.0889-33.2363,74.0889-74.0888
		C205.126,114.2581,171.8906,81.0227,131.0371,81.0227z M16.001,89.3538c0.0088-4.669,0.9882-8.1084,2.3593-10.8809
		c1.1055-2.2275,2.5323-4.0459,4.0401-5.5351v35.9423v4.17C17.6064,102.9368,15.9844,95.1262,16.001,89.3538z M131.0381,198.7141
		c-4.8184,0-8.7217-3.9033-8.7217-8.7207s3.9033-8.7197,8.7217-8.7197c4.8154,0,8.7197,3.9023,8.7197,8.7197
		S135.8535,198.7141,131.0381,198.7141z M92.5586,87.1829c0.6543,1.1015,1.3076,2.2705,1.957,3.5058
		c0.3008,0.5723,0.6006,1.1582,0.8994,1.7598c0.3369,0.6797,0.6739,1.3809,1.0078,2.1006
		c1.3907,2.9863,2.7539,6.3125,4.0625,10.0312c1.1553,3.294,4.2461,5.3535,7.5469,5.3535c0.8789,0,1.7725-0.1464,2.6484-0.4531
		c4.1709-1.4619,6.3624-6.0273,4.9004-10.1953c-1.3984-3.999-2.8867-7.6699-4.4404-11.043
		c-0.1641-0.3574-0.331-0.7089-0.4971-1.0595h2.1993c0.0771,0.166,0.1523,0.3427,0.2295,0.5107
		c5.7333-1.5234,11.7529-2.3467,17.9658-2.3467c19.2617,0,34.8808,15.6182,34.8808,34.8828
		c0,19.2657-15.6191,34.8829-34.8808,34.8829c-19.2657,0-34.8828,15.6152-34.8828,34.8808
		c0,19.2647,15.6171,34.8819,34.8828,34.8819c-22.0088,0-41.6231-10.2002-54.4092-26.1182
		c-9.5996-11.9512-15.3555-27.1221-15.3555-43.6445c0-6.795,0.9893-13.3565,2.8008-19.5664
		c2.5723-8.8174,6.834-16.9092,12.418-23.9063c0.0459-0.0576,0.0908-0.1162,0.1367-0.1738
		c5.0488-6.2852,11.1533-11.6846,18.0605-15.9082c-0.332-0.7188-0.6699-1.4209-1.0107-2.1104
		c-0.2959-0.5986-0.5967-1.1816-0.8994-1.7588c-6.0479,3.6621-11.5283,8.167-16.2871,13.3457V70.3128
		c1.0361,0.5615,2.1513,1.249,3.3369,2.1093C83.5693,75.1585,88.083,79.6448,92.5586,87.1829z"/>
	<path d="M131.0381,128.9514c4.8154,0,8.7197-3.9043,8.7197-8.7217c0-4.8164-3.9043-8.7207-8.7197-8.7207
		c-4.8184,0-8.7217,3.9043-8.7217,8.7207C122.3164,125.0471,126.2197,128.9514,131.0381,128.9514z"/>
	<path d="M68.9043,11.2044c-0.001-0.001-0.001-0.002-0.002-0.003c-0.8027-1.3838-1.7461-2.6611-2.8037-3.8242l-0.001-0.001
		c-4.1152,2.1826-10.0459,3.5567-16.6513,3.5567c-6.6045,0-12.5352-1.3731-16.6494-3.5557
		c-0.0088-0.0019-7.9366-2.0215-14.1836,9.6387c-2.4991,4.665-6.333,16.1679-3.916,25.667c0,0,1.25-8.6241,3.5-10.4991
		c-0.25,2.834,0.25,8.4991,2.25,10.2491c1.166-18.416,5.4736-29.3203,9.5488-31.2227c3.8984,3.2227,11.1465,5.3897,19.4502,5.3897
		C57.7549,16.5999,65.0068,14.4299,68.9043,11.2044z"/>
</g>
</svg>
