<svg width="48" height="48" viewBox="0 0 48 48" fill="none" xmlns="http://www.w3.org/2000/svg">
<g clip-path="url(#clip0_710_20)">
<rect width="48" height="48" fill="#212121"/>
<g filter="url(#filter0_d_710_20)">
<path fill-rule="evenodd" clip-rule="evenodd" d="M0 24C0 37.2548 10.7452 48 24 48C37.2548 48 48 37.2548 48 24C48 10.7452 37.2548 0 24 0C10.7452 0 0 10.7452 0 24ZM19.6 35L20.0083 28.8823L20.008 28.882L31.1369 18.839C31.6253 18.4055 31.0303 18.1941 30.3819 18.5873L16.6473 27.2523L10.7147 25.4007C9.4335 25.0084 9.4243 24.128 11.0023 23.4951L34.1203 14.5809C35.1762 14.1015 36.1953 14.8345 35.7922 16.4505L31.8552 35.0031C31.5803 36.3215 30.7837 36.6368 29.68 36.0278L23.6827 31.5969L20.8 34.4C20.7909 34.4088 20.7819 34.4176 20.7729 34.4264C20.4505 34.7403 20.1837 35 19.6 35Z" fill="white"/>
<path d="M19.1011 34.9667L19.0655 35.5H19.6C19.9748 35.5 20.2746 35.4143 20.5349 35.2637C20.7694 35.1279 20.9555 34.9466 21.1056 34.8004L21.1217 34.7846L21.1225 34.7839L21.1476 34.7594L21.1486 34.7585L23.727 32.2513L29.3829 36.43L29.4095 36.4496L29.4384 36.4656C30.0486 36.8022 30.7025 36.9562 31.2839 36.694C31.8679 36.4307 32.193 35.832 32.3446 35.1057C32.3446 35.1055 32.3446 35.1054 32.3447 35.1052L36.2795 16.5626C36.5033 15.6568 36.3595 14.8623 35.851 14.3705C35.3374 13.8738 34.593 13.8226 33.9277 14.1193L10.8224 23.0286L10.8224 23.0285L10.8162 23.031C10.389 23.2023 10.0381 23.4022 9.78036 23.63C9.52582 23.855 9.32325 24.1434 9.28878 24.4884C9.25243 24.8521 9.41351 25.1631 9.65403 25.3901C9.88576 25.6088 10.205 25.7674 10.5671 25.8784C10.5675 25.8786 10.5679 25.8787 10.5683 25.8788L16.4983 27.7296L16.7188 27.7984L16.9141 27.6752L29.1605 19.949L19.673 28.5108L19.281 28.8645L19.4942 29.0764L19.1011 34.9667ZM24 47.5C11.0213 47.5 0.5 36.9787 0.5 24C0.5 11.0213 11.0213 0.5 24 0.5C36.9787 0.5 47.5 11.0213 47.5 24C47.5 36.9787 36.9787 47.5 24 47.5Z" stroke="white"/>
</g>
</g>
<defs>
<filter id="filter0_d_710_20" x="-4" y="0" width="56" height="56" filterUnits="userSpaceOnUse" color-interpolation-filters="sRGB">
<feFlood flood-opacity="0" result="BackgroundImageFix"/>
<feColorMatrix in="SourceAlpha" type="matrix" values="0 0 0 0 0 0 0 0 0 0 0 0 0 0 0 0 0 0 127 0" result="hardAlpha"/>
<feOffset dy="4"/>
<feGaussianBlur stdDeviation="2"/>
<feComposite in2="hardAlpha" operator="out"/>
<feColorMatrix type="matrix" values="0 0 0 0 0 0 0 0 0 0 0 0 0 0 0 0 0 0 0.25 0"/>
<feBlend mode="normal" in2="BackgroundImageFix" result="effect1_dropShadow_710_20"/>
<feBlend mode="normal" in="SourceGraphic" in2="effect1_dropShadow_710_20" result="shape"/>
</filter>
<clipPath id="clip0_710_20">
<rect width="48" height="48" fill="white"/>
</clipPath>
</defs>
</svg>
