<svg width="72" height="72" viewBox="0 0 72 72" fill="none" xmlns="http://www.w3.org/2000/svg">
<path fill-rule="evenodd" clip-rule="evenodd" d="M0 72H72V0H0V72Z" fill="#212121"/>
<path fill-rule="evenodd" clip-rule="evenodd" d="M36 10C50.3594 10 62 21.6406 62 36C62 50.3594 50.3594 62 36 62C21.6406 62 10 50.3594 10 36C10 21.6406 21.6406 10 36 10ZM37.5572 20.5908C39.3251 20.8114 40.7537 21.2373 42.3212 22.0019C43.8629 22.7563 44.8496 23.4695 46.155 24.7677C47.3782 25.9941 48.0565 26.923 48.776 28.3649C49.7782 30.3764 50.3486 32.7676 50.4462 35.4C50.4823 36.298 50.4566 36.4982 50.2509 36.7547C49.8604 37.2525 49.0021 37.1703 48.7092 36.611C48.6167 36.4263 48.591 36.2673 48.5601 35.5488C48.5087 34.4456 48.4317 33.7323 48.2775 32.8805C47.6711 29.54 46.0677 26.8716 43.5083 24.9576C41.3756 23.3566 39.1708 22.5766 36.2827 22.4073C35.3062 22.3509 35.1366 22.315 34.9157 22.1456C34.5045 21.8223 34.484 21.0629 34.8796 20.7088C35.1212 20.4881 35.2908 20.4574 36.1285 20.483C36.5653 20.4984 37.2077 20.5497 37.5572 20.5908ZM25.809 21.145C25.9889 21.2066 26.2664 21.3502 26.4258 21.4529C27.4021 22.0994 30.1208 25.5734 31.0099 27.3078C31.5186 28.2981 31.6882 29.0319 31.529 29.5759C31.3644 30.1609 31.0921 30.4688 29.8741 31.4489C29.3859 31.8439 28.9285 32.2493 28.8566 32.3571C28.6716 32.6239 28.5225 33.1473 28.5225 33.5168C28.5277 34.3737 29.0827 35.9286 29.8125 37.1242C30.3777 38.053 31.3901 39.2434 32.3923 40.1568C33.5692 41.2345 34.6073 41.9682 35.779 42.5481C37.2848 43.2972 38.2047 43.4871 38.878 43.1741C39.0476 43.0971 39.2274 42.9945 39.284 42.9484C39.3353 42.9022 39.7311 42.4198 40.1628 41.8862C40.9953 40.8393 41.1854 40.67 41.7559 40.475C42.4806 40.2287 43.2206 40.2954 43.9657 40.6751C44.5311 40.9676 45.7645 41.7322 46.561 42.2864C47.6094 43.0202 49.8501 44.847 50.1534 45.2113C50.6878 45.8682 50.7803 46.7096 50.4205 47.6385C50.0402 48.6185 48.5602 50.4556 47.5272 51.2407C46.5919 51.9489 45.9289 52.2207 45.0553 52.2618C44.3358 52.2977 44.0377 52.2362 43.1178 51.8565C35.9024 48.8854 30.1414 44.4519 25.5674 38.3608C23.1778 35.1794 21.3585 31.8799 20.1147 28.4572C19.3902 26.4612 19.3542 25.5939 19.9503 24.5728C20.2073 24.1418 21.3019 23.0744 22.0985 22.4792C23.4245 21.4939 24.036 21.1296 24.5242 21.027C24.8582 20.9551 25.4389 21.0116 25.809 21.145ZM37.9118 24.3111C41.0313 24.7677 43.4467 26.2148 45.0296 28.565C45.9187 29.8889 46.4737 31.4437 46.6638 33.1114C46.7306 33.722 46.7306 34.8356 46.6587 35.0203C46.5919 35.1947 46.376 35.4308 46.191 35.5283C45.9906 35.6309 45.5641 35.6207 45.3276 35.4975C44.9319 35.2974 44.8137 34.9792 44.8137 34.1172C44.8137 32.7882 44.4694 31.3873 43.8733 30.2994C43.1949 29.0576 42.2082 28.0313 41.0056 27.318C39.9726 26.7023 38.4463 26.2456 37.0536 26.1327C36.5499 26.0916 36.2724 25.989 36.0822 25.7684C35.7894 25.4348 35.7585 24.9833 36.0051 24.6087C36.2724 24.193 36.6835 24.1263 37.9118 24.3111ZM39.0064 28.1853C40.0188 28.4008 40.7949 28.7856 41.4578 29.4065C42.3109 30.2121 42.7786 31.1871 42.9842 32.588C43.1229 33.5014 43.0664 33.8606 42.7426 34.1582C42.4394 34.4353 41.8793 34.4456 41.54 34.1839C41.2934 33.9991 41.2163 33.8041 41.1597 33.2756C41.093 32.5726 40.9696 32.08 40.7589 31.6233C40.3067 30.6535 39.5101 30.1506 38.1637 29.9864C37.5315 29.9094 37.3413 29.8376 37.1358 29.5964C36.7606 29.15 36.9045 28.4264 37.4235 28.1596C37.6189 28.0621 37.7011 28.0518 38.1328 28.0775C38.4 28.0929 38.7958 28.1391 39.0064 28.1853Z" fill="white"/>
</svg>
